<svg xmlns="http://www.w3.org/2000/svg" height="32" width="32" viewBox="0 0 32 32">
    <defs>
        <clipPath id="clipShadow">
            <path d="M -4 28 A 24 54 3 1 1 36 28 A 24 24 3 0 0 -4 28 Z" fill="rgba(0,0,0,0.2)"/>
        </clipPath>
        <clipPath id="clipEye">
            <circle cx="16" cy="0" r="24"/>
        </clipPath>
        <clipPath id="clipInnerEye">
            <circle cx="16" cy="16" r="9"/>
        </clipPath>
    </defs>
    <!--LASHES-->
    <path d="M 8 8 L 3 3 M 5 10 L 2 7 M 10 5 L 7 2" stroke-width="1.5" stroke-linecap="round" stroke-linejoin="round" stroke="#2e0324" fill="transparent"/>
    <!--SCLERA-->
    <circle cx="16" cy="16" r="12" fill="#ffffff"/>
    <!--IRIS-->
    <circle cx="16" cy="16" r="9" fill="#fab7eb"/>
    <ellipse cx="16" cy="24" rx="4" ry="3" fill="#fccef1" clip-path="url(#clipInnerEye)"/>
    <circle cx="16" cy="16" r="9" stroke-width="1" stroke="#f99fe4" fill="transparent"/>
    <!--PUPIL-->
    <ellipse cx="16" cy="16" rx="2" ry="6" fill="#2e0324"/>
    <!--SHADOW-->
    <circle clip-path="url(#clipShadow)" cx="16" cy="16" r="12" fill="rgba(0,0,0,0.2)"/>
    <!--HIGHLIGHTS-->
    <ellipse cx="22" cy="16" rx="3.5" ry="2" fill="#ffffff"/>
    <circle cx="12" cy="12" r="1.5" fill="#ffffff"/>
    <!--OUTER STUFF-->
    <circle clip-path="url(#clipEye)" cx="16" cy="16" r="12" stroke="#2e0324" fill="transparent"/>
</svg>